<?xml version="1.0" standalone="no"?>
<!DOCTYPE svg PUBLIC "-//W3C//DTD SVG 20010904//EN"
 "http://www.w3.org/TR/2001/REC-SVG-20010904/DTD/svg10.dtd">
<svg version="1.0" xmlns="http://www.w3.org/2000/svg"
 width="225.000000pt" height="225.000000pt" viewBox="0 0 225.000000 225.000000"
 preserveAspectRatio="xMidYMid meet">

<g transform="translate(0.000000,225.000000) scale(0.100000,-0.100000)"
fill="#000000" stroke="none">
<path d="M743 1675 l-153 -116 0 -554 0 -554 155 117 155 117 0 167 0 166 186
131 187 131 -186 0 -187 0 -2 256 -3 256 -152 -117z"/>
<path d="M1503 1673 l-153 -116 0 -166 0 -167 -179 -124 -178 -125 178 -3 179
-2 0 -255 c0 -140 3 -255 7 -255 4 0 73 51 155 112 l148 113 0 552 c0 304 -1
553 -2 553 -2 0 -72 -53 -155 -117z"/>
</g>
</svg>
